<svg width="657.9px" height="122px" xmlns="http://www.w3.org/2000/svg" viewBox="-78.94687499999998 14 657.89375 122" style="background: rgba(0, 0, 0, 0)" preserveAspectRatio="xMidYMid"><defs><linearGradient id="editing-gradient-gradient" x1="0" x2="1" y1="0.5" y2="0.5" gradientUnits="objectBoundingBox"><stop offset="0" stop-color="#090dd7"></stop><stop offset="1" stop-color="#ff0000"></stop></linearGradient></defs><g><g transform="matrix(1.3,0,0,1.3,-50.5,144.5)"><path d="M 2.1 -33.3 L -11.8 -33.3 L -3.7 -75.6 L 10.4 -75.6 L 2.1 -33.3 Z M 57.9 -32 L 57.9 -32 L 57.9 -32 Q 50.1 -32 50.1 -38.1 L 50.1 -38.1 L 50.1 -38.1 Q 50.1 -40.7 51.3 -45.8 L 51.3 -45.8 L 51.3 -45.8 Q 52.4 -50.9 52.8 -52.9 L 52.8 -52.9 L 52.8 -52.9 Q 53.7 -57.6 53.7 -59.1 L 53.7 -59.1 L 53.7 -59.1 Q 53.7 -62.3 51.2 -62.3 L 51.2 -62.3 L 51.2 -62.3 Q 49.6 -62.3 48.1 -60.1 L 48.1 -60.1 L 48.1 -60.1 Q 46.5 -57.9 45.8 -53.5 L 45.8 -53.5 L 41.9 -33.3 L 29.4 -32 L 32.9 -49.5 L 32.9 -49.5 Q 33.4 -52.3 33.9 -55.6 L 33.9 -55.6 L 33.9 -55.6 Q 34.5 -58.9 34.5 -59.4 L 34.5 -59.4 L 34.5 -59.4 Q 34.5 -62.3 32.3 -62.3 L 32.3 -62.3 L 32.3 -62.3 Q 30.8 -62.3 29.2 -60.1 L 29.2 -60.1 L 29.2 -60.1 Q 27.6 -58 26.7 -53.5 L 26.7 -53.5 L 22.8 -33.3 L 10.2 -32 L 16.9 -66 L 27.3 -67.2 L 26.3 -60.8 L 26.3 -60.8 Q 27.9 -64.2 31 -65.7 L 31 -65.7 L 31 -65.7 Q 34.1 -67.2 38.9 -67.2 L 38.9 -67.2 L 38.9 -67.2 Q 41.6 -67.2 43.4 -65.9 L 43.4 -65.9 L 43.4 -65.9 Q 45.2 -64.6 45.8 -62.4 L 45.8 -62.4 L 45.8 -62.4 Q 46.9 -64.6 49.7 -65.9 L 49.7 -65.9 L 49.7 -65.9 Q 52.4 -67.2 55.9 -67.2 L 55.9 -67.2 L 55.9 -67.2 Q 59.3 -67.2 61 -66.5 L 61 -66.5 L 61 -66.5 Q 62.7 -65.8 63.7 -64.6 L 63.7 -64.6 L 63.7 -64.6 Q 65.4 -62.3 65.4 -58.2 L 65.4 -58.2 L 65.4 -58.2 Q 65.4 -54.2 63.7 -45.8 L 63.7 -45.8 L 63.7 -45.8 Q 62.8 -41.7 62.8 -40.2 L 62.8 -40.2 L 62.8 -40.2 Q 62.8 -38.7 63.7 -37.8 L 63.7 -37.8 L 63.7 -37.8 Q 64.5 -36.9 65.8 -36.8 L 65.8 -36.8 L 65.8 -36.8 Q 65.2 -34.6 63 -33.3 L 63 -33.3 L 63 -33.3 Q 60.8 -32 57.9 -32 Z M 73.5 -35.2 L 73.5 -35.2 L 73.5 -35.2 Q 72 -36.9 71.3 -39.5 L 71.3 -39.5 L 71.3 -39.5 Q 70.7 -42.2 70.7 -46.4 L 70.7 -46.4 L 70.7 -46.4 Q 70.7 -50.7 72.1 -54.6 L 72.1 -54.6 L 72.1 -54.6 Q 73.6 -58.5 76.3 -61.4 L 76.3 -61.4 L 76.3 -61.4 Q 81.8 -67.2 90.9 -67.2 L 90.9 -67.2 L 90.9 -67.2 Q 94.2 -67.2 96.5 -66.2 L 96.5 -66.2 L 107.5 -67.2 L 102.7 -42.3 L 102.7 -42.3 Q 102.5 -41.5 102.5 -40.1 L 102.5 -40.1 L 102.5 -40.1 Q 102.5 -38.7 103.4 -37.8 L 103.4 -37.8 L 103.4 -37.8 Q 104.3 -36.9 105.6 -36.8 L 105.6 -36.8 L 105.6 -36.8 Q 104.9 -34.6 102.6 -33.3 L 102.6 -33.3 L 102.6 -33.3 Q 100.2 -32 97.6 -32 L 97.6 -32 L 97.6 -32 Q 95 -32 93.2 -33 L 93.2 -33 L 93.2 -33 Q 91.5 -34 91 -35.7 L 91 -35.7 L 91 -35.7 Q 89.9 -34.1 87.8 -33.1 L 87.8 -33.1 L 87.8 -33.1 Q 85.6 -32 82.7 -32 L 82.7 -32 L 82.7 -32 Q 79.8 -32 77.4 -32.8 L 77.4 -32.8 L 77.4 -32.8 Q 75 -33.6 73.5 -35.2 Z M 87 -61.2 L 87 -61.2 L 87 -61.2 Q 86.3 -60.1 85.7 -58.1 L 85.7 -58.1 L 85.7 -58.1 Q 85 -56.2 84 -51 L 84 -51 L 84 -51 Q 82.9 -45.7 82.9 -42 L 82.9 -42 L 82.9 -42 Q 82.9 -38.3 83.5 -37.2 L 83.5 -37.2 L 83.5 -37.2 Q 84.1 -36.1 85.1 -36.1 L 85.1 -36.1 L 85.1 -36.1 Q 87.1 -36.1 88.6 -38.1 L 88.6 -38.1 L 88.6 -38.1 Q 90.1 -40 90.7 -43.5 L 90.7 -43.5 L 94.1 -62.3 L 94.1 -62.3 Q 92.8 -63.4 91.2 -63.4 L 91.2 -63.4 L 91.2 -63.4 Q 89.6 -63.4 88.7 -62.9 L 88.7 -62.9 L 88.7 -62.9 Q 87.8 -62.4 87 -61.2 Z M 115.2 -60.1 L 115.2 -60.1 L 115.2 -60.1 Q 117.4 -63.1 120.7 -65.2 L 120.7 -65.2 L 120.7 -65.2 Q 124 -67.2 128 -67.2 L 128 -67.2 L 128 -67.2 Q 132.1 -67.2 134 -66 L 134 -66 L 146.5 -67.2 L 142.2 -42.7 L 142.2 -42.7 Q 139.9 -30.1 135.2 -25.2 L 135.2 -25.2 L 135.2 -25.2 Q 130.6 -20.5 121.8 -20.5 L 121.8 -20.5 L 121.8 -20.5 Q 115.1 -20.5 111.3 -22.6 L 111.3 -22.6 L 111.3 -22.6 Q 107.4 -24.7 107.4 -28.3 L 107.4 -28.3 L 107.4 -28.3 Q 107.4 -30.9 109.4 -32.4 L 109.4 -32.4 L 109.4 -32.4 Q 111.4 -33.9 114.5 -33.9 L 114.5 -33.9 L 114.5 -33.9 Q 117.1 -33.9 119.2 -32.7 L 119.2 -32.7 L 119.2 -32.7 Q 120.4 -32 121 -31.1 L 121 -31.1 L 121 -31.1 Q 119.5 -29.9 119.5 -27.8 L 119.5 -27.8 L 119.5 -27.8 Q 119.5 -25 122.1 -25 L 122.1 -25 L 122.1 -25 Q 126.4 -25 128.8 -35.1 L 128.8 -35.1 L 128.8 -35.1 Q 129.5 -37.9 130.1 -40.6 L 130.1 -40.6 L 130.1 -40.6 Q 127.2 -37.1 120.7 -37.1 L 120.7 -37.1 L 120.7 -37.1 Q 116.1 -37.1 113.5 -39.3 L 113.5 -39.3 L 113.5 -39.3 Q 110.9 -41.5 110.9 -46.6 L 110.9 -46.6 L 110.9 -46.6 Q 110.9 -49.8 112 -53.4 L 112 -53.4 L 112 -53.4 Q 113 -57 115.2 -60.1 Z M 123.5 -46.4 L 123.5 -46.4 L 123.5 -46.4 Q 123.5 -42 125.8 -42 L 125.8 -42 L 125.8 -42 Q 127.3 -42 128.8 -43.7 L 128.8 -43.7 L 128.8 -43.7 Q 129.9 -45 130.4 -47 L 130.4 -47 L 133.7 -63.5 L 133.7 -63.5 Q 133.3 -63.5 133 -63.7 L 133 -63.7 L 133 -63.7 Q 132.4 -63.9 131.5 -63.9 L 131.5 -63.9 L 131.5 -63.9 Q 127.6 -63.9 125.3 -57.5 L 125.3 -57.5 L 125.3 -57.5 Q 123.5 -52.5 123.5 -46.4 Z M 174.9 -44.1 L 174.9 -44.1 L 174.9 -44.1 Q 176.5 -43.1 176.5 -40.7 L 176.5 -40.7 L 176.5 -40.7 Q 176.5 -38.3 175.3 -36.7 L 175.3 -36.7 L 175.3 -36.7 Q 174.1 -35.2 172.1 -34.2 L 172.1 -34.2 L 172.1 -34.2 Q 168 -32 163.6 -32 L 163.6 -32 L 163.6 -32 Q 159.2 -32 156.6 -33 L 156.6 -33 L 156.6 -33 Q 154 -34 152.3 -35.8 L 152.3 -35.8 L 152.3 -35.8 Q 148.9 -39.1 148.9 -45.4 L 148.9 -45.4 L 148.9 -45.4 Q 148.9 -55 154.1 -60.9 L 154.1 -60.9 L 154.1 -60.9 Q 159.8 -67.2 169.6 -67.2 L 169.6 -67.2 L 169.6 -67.2 Q 175.6 -67.2 178.6 -64.7 L 178.6 -64.7 L 178.6 -64.7 Q 180.9 -62.8 180.9 -59.6 L 180.9 -59.6 L 180.9 -59.6 Q 180.9 -48.4 161.4 -48.4 L 161.4 -48.4 L 161.4 -48.4 Q 161.2 -46.7 161.2 -45.3 L 161.2 -45.3 L 161.2 -45.3 Q 161.2 -42.3 162.5 -41.2 L 162.5 -41.2 L 162.5 -41.2 Q 163.8 -40.1 166.2 -40.1 L 166.2 -40.1 L 166.2 -40.1 Q 168.7 -40.1 171.3 -41.2 L 171.3 -41.2 L 171.3 -41.2 Q 173.8 -42.3 174.9 -44.1 Z M 161.9 -51.1 L 161.9 -51.1 L 161.9 -51.1 Q 166.4 -51.1 169 -53.9 L 169 -53.9 L 169 -53.9 Q 171.7 -56.6 171.7 -60.9 L 171.7 -60.9 L 171.7 -60.9 Q 171.7 -62.4 171.1 -63.2 L 171.1 -63.2 L 171.1 -63.2 Q 170.6 -64 169.5 -64 L 169.5 -64 L 169.5 -64 Q 168.4 -64 167.5 -63.6 L 167.5 -63.6 L 167.5 -63.6 Q 166.5 -63.1 165.6 -61.7 L 165.6 -61.7 L 165.6 -61.7 Q 163.2 -58.5 161.9 -51.1 Z M 202.2 -55.8 L 202.2 -55.8 L 202.2 -55.8 Q 203.1 -58.2 203.1 -60.2 L 203.1 -60.2 L 203.1 -60.2 Q 203.1 -64 200 -64 L 200 -64 L 200 -64 Q 198.4 -64 197.1 -62.5 L 197.1 -62.5 L 197.1 -62.5 Q 195.8 -61.1 195.8 -59.3 L 195.8 -59.3 L 195.8 -59.3 Q 195.8 -58 196.8 -57 L 196.8 -57 L 196.8 -57 Q 198.3 -55.6 202.1 -53.3 L 202.1 -53.3 L 202.1 -53.3 Q 205.8 -51 207.3 -49.1 L 207.3 -49.1 L 207.3 -49.1 Q 208.7 -47.2 208.7 -44.6 L 208.7 -44.6 L 208.7 -44.6 Q 208.7 -42 207.5 -39.7 L 207.5 -39.7 L 207.5 -39.7 Q 206.2 -37.3 204 -35.6 L 204 -35.6 L 204 -35.6 Q 199.2 -32 191.5 -32 L 191.5 -32 L 191.5 -32 Q 187.3 -32 184.1 -34.2 L 184.1 -34.2 L 184.1 -34.2 Q 180.9 -36.3 180.9 -38.8 L 180.9 -38.8 L 180.9 -38.8 Q 180.9 -41.3 182.8 -42.8 L 182.8 -42.8 L 182.8 -42.8 Q 184.6 -44.3 187.3 -44.3 L 187.3 -44.3 L 187.3 -44.3 Q 190 -44.3 191.6 -43.2 L 191.6 -43.2 L 191.6 -43.2 Q 190.8 -41.1 190.8 -39.7 L 190.8 -39.7 L 190.8 -39.7 Q 190.8 -35.5 194.4 -35.5 L 194.4 -35.5 L 194.4 -35.5 Q 195.9 -35.5 196.9 -36.5 L 196.9 -36.5 L 196.9 -36.5 Q 198 -37.4 198 -39.1 L 198 -39.1 L 198 -39.1 Q 198 -42.3 192.5 -45.8 L 192.5 -45.8 L 192.5 -45.8 Q 188 -48.7 187 -49.9 L 187 -49.9 L 187 -49.9 Q 185.2 -51.9 185.2 -54.5 L 185.2 -54.5 L 185.2 -54.5 Q 185.2 -57.1 186.5 -59.5 L 186.5 -59.5 L 186.5 -59.5 Q 187.7 -61.9 189.9 -63.7 L 189.9 -63.7 L 189.9 -63.7 Q 194.6 -67.2 202.7 -67.2 L 202.7 -67.2 L 202.7 -67.2 Q 206.9 -67.2 209.3 -65.6 L 209.3 -65.6 L 209.3 -65.6 Q 211.8 -63.9 211.8 -61.1 L 211.8 -61.1 L 211.8 -61.1 Q 211.8 -58.3 210.1 -56.7 L 210.1 -56.7 L 210.1 -56.7 Q 208.4 -55.1 205.3 -55.1 L 205.3 -55.1 L 205.3 -55.1 Q 203.2 -55.1 202.2 -55.8 Z M 253.3 -53.9 L 266.2 -55.1 L 266.2 -55.1 Q 261.6 -45 261.6 -33.3 L 261.6 -33.3 L 261.6 -33.3 Q 259.9 -32 257.3 -32 L 257.3 -32 L 257.3 -32 Q 254.8 -32 253.2 -33.2 L 253.2 -33.2 L 253.2 -33.2 Q 251.6 -34.4 251.3 -35.6 L 251.3 -35.6 L 251.3 -35.6 Q 249.7 -34 247.1 -33 L 247.1 -33 L 247.1 -33 Q 244.5 -32 241.7 -32 L 241.7 -32 L 241.7 -32 Q 239 -32 236.6 -32.9 L 236.6 -32.9 L 236.6 -32.9 Q 234.2 -33.8 232.3 -35.8 L 232.3 -35.8 L 232.3 -35.8 Q 228.2 -40.2 228.2 -48.4 L 228.2 -48.4 L 228.2 -48.4 Q 228.2 -61.2 235.1 -68.9 L 235.1 -68.9 L 235.1 -68.9 Q 242.1 -76.8 254.6 -76.8 L 254.6 -76.8 L 254.6 -76.8 Q 263.3 -76.8 266.3 -72.4 L 266.3 -72.4 L 266.3 -72.4 Q 267.3 -71 267.3 -69.3 L 267.3 -69.3 L 267.3 -69.3 Q 267.3 -67.6 266.5 -66.1 L 266.5 -66.1 L 266.5 -66.1 Q 265.8 -64.7 264.7 -63.5 L 264.7 -63.5 L 264.7 -63.5 Q 261.9 -61 258.5 -61 L 258.5 -61 L 258.5 -61 Q 257.2 -61 255.9 -61.4 L 255.9 -61.4 L 255.9 -61.4 Q 256.1 -63.3 256.1 -65.6 L 256.1 -65.6 L 256.1 -65.6 Q 256.1 -67.8 256 -68.8 L 256 -68.8 L 256 -68.8 Q 255.8 -69.9 255.4 -70.7 L 255.4 -70.7 L 255.4 -70.7 Q 254.6 -72.4 252.8 -72.4 L 252.8 -72.4 L 252.8 -72.4 Q 251 -72.4 248.9 -70.5 L 248.9 -70.5 L 248.9 -70.5 Q 246.9 -68.5 245.3 -65.3 L 245.3 -65.3 L 245.3 -65.3 Q 241.8 -58.2 241.8 -49.5 L 241.8 -49.5 L 241.8 -49.5 Q 241.8 -45.5 243.3 -42.7 L 243.3 -42.7 L 243.3 -42.7 Q 245 -39.7 248 -39.7 L 248 -39.7 L 248 -39.7 Q 249 -39.7 249.9 -40.2 L 249.9 -40.2 L 249.9 -40.2 Q 250.8 -40.7 251.2 -41.1 L 251.2 -41.1 L 253.3 -53.9 Z M 272.1 -35.2 L 272.1 -35.2 L 272.1 -35.2 Q 270.6 -36.9 269.9 -39.5 L 269.9 -39.5 L 269.9 -39.5 Q 269.3 -42.2 269.3 -46.4 L 269.3 -46.4 L 269.3 -46.4 Q 269.3 -50.7 270.7 -54.6 L 270.7 -54.6 L 270.7 -54.6 Q 272.2 -58.5 274.9 -61.4 L 274.9 -61.4 L 274.9 -61.4 Q 280.4 -67.2 289.5 -67.2 L 289.5 -67.2 L 289.5 -67.2 Q 292.8 -67.2 295.1 -66.2 L 295.1 -66.2 L 306.1 -67.2 L 301.3 -42.3 L 301.3 -42.3 Q 301.1 -41.5 301.1 -40.1 L 301.1 -40.1 L 301.1 -40.1 Q 301.1 -38.7 302 -37.8 L 302 -37.8 L 302 -37.8 Q 302.9 -36.9 304.1 -36.8 L 304.1 -36.8 L 304.1 -36.8 Q 303.5 -34.6 301.2 -33.3 L 301.2 -33.3 L 301.2 -33.3 Q 298.8 -32 296.2 -32 L 296.2 -32 L 296.2 -32 Q 293.6 -32 291.8 -33 L 291.8 -33 L 291.8 -33 Q 290.1 -34 289.6 -35.7 L 289.6 -35.7 L 289.6 -35.7 Q 288.5 -34.1 286.4 -33.1 L 286.4 -33.1 L 286.4 -33.1 Q 284.2 -32 281.3 -32 L 281.3 -32 L 281.3 -32 Q 278.4 -32 276 -32.8 L 276 -32.8 L 276 -32.8 Q 273.6 -33.6 272.1 -35.2 Z M 285.6 -61.2 L 285.6 -61.2 L 285.6 -61.2 Q 284.9 -60.1 284.2 -58.1 L 284.2 -58.1 L 284.2 -58.1 Q 283.6 -56.2 282.5 -51 L 282.5 -51 L 282.5 -51 Q 281.5 -45.7 281.5 -42 L 281.5 -42 L 281.5 -42 Q 281.5 -38.3 282.1 -37.2 L 282.1 -37.2 L 282.1 -37.2 Q 282.6 -36.1 283.7 -36.1 L 283.7 -36.1 L 283.7 -36.1 Q 285.7 -36.1 287.2 -38.1 L 287.2 -38.1 L 287.2 -38.1 Q 288.7 -40 289.3 -43.5 L 289.3 -43.5 L 292.7 -62.3 L 292.7 -62.3 Q 291.3 -63.4 289.8 -63.4 L 289.8 -63.4 L 289.8 -63.4 Q 288.2 -63.4 287.3 -62.9 L 287.3 -62.9 L 287.3 -62.9 Q 286.4 -62.4 285.6 -61.2 Z M 324.8 -36.8 L 324.8 -36.8 L 324.8 -36.8 Q 322.8 -32 316.5 -32 L 316.5 -32 L 316.5 -32 Q 313.3 -32 311.3 -34.3 L 311.3 -34.3 L 311.3 -34.3 Q 309.6 -36.1 309.6 -38.3 L 309.6 -38.3 L 309.6 -38.3 Q 309.6 -43.1 311.8 -53.5 L 311.8 -53.5 L 316.5 -78.1 L 329.5 -79.4 L 323.3 -47 L 323.3 -47 Q 322.2 -42.3 322.2 -40.6 L 322.2 -40.6 L 322.2 -40.6 Q 322.2 -37 324.8 -36.8 Z M 345.6 -36.8 L 345.6 -36.8 L 345.6 -36.8 Q 343.6 -32 337.2 -32 L 337.2 -32 L 337.2 -32 Q 334 -32 332 -34.3 L 332 -34.3 L 332 -34.3 Q 330.3 -36.1 330.3 -38.3 L 330.3 -38.3 L 330.3 -38.3 Q 330.3 -43.1 332.6 -53.5 L 332.6 -53.5 L 337.2 -78.1 L 350.2 -79.4 L 344 -47 L 344 -47 Q 342.9 -42.3 342.9 -40.6 L 342.9 -40.6 L 342.9 -40.6 Q 342.9 -37 345.6 -36.8 Z M 376.9 -44.1 L 376.9 -44.1 L 376.9 -44.1 Q 378.5 -43.1 378.5 -40.7 L 378.5 -40.7 L 378.5 -40.7 Q 378.5 -38.3 377.3 -36.7 L 377.3 -36.7 L 377.3 -36.7 Q 376.1 -35.2 374.1 -34.2 L 374.1 -34.2 L 374.1 -34.2 Q 370 -32 365.6 -32 L 365.6 -32 L 365.6 -32 Q 361.2 -32 358.6 -33 L 358.6 -33 L 358.6 -33 Q 356 -34 354.3 -35.8 L 354.3 -35.8 L 354.3 -35.8 Q 350.9 -39.1 350.9 -45.4 L 350.9 -45.4 L 350.9 -45.4 Q 350.9 -55 356.1 -60.9 L 356.1 -60.9 L 356.1 -60.9 Q 361.7 -67.2 371.5 -67.2 L 371.5 -67.2 L 371.5 -67.2 Q 377.6 -67.2 380.6 -64.7 L 380.6 -64.7 L 380.6 -64.7 Q 382.9 -62.8 382.9 -59.6 L 382.9 -59.6 L 382.9 -59.6 Q 382.9 -48.4 363.4 -48.4 L 363.4 -48.4 L 363.4 -48.4 Q 363.2 -46.7 363.2 -45.3 L 363.2 -45.3 L 363.2 -45.3 Q 363.2 -42.3 364.5 -41.2 L 364.5 -41.2 L 364.5 -41.2 Q 365.8 -40.1 368.2 -40.1 L 368.2 -40.1 L 368.2 -40.1 Q 370.6 -40.1 373.2 -41.2 L 373.2 -41.2 L 373.2 -41.2 Q 375.8 -42.3 376.9 -44.1 Z M 363.9 -51.1 L 363.9 -51.1 L 363.9 -51.1 Q 368.4 -51.1 371 -53.9 L 371 -53.9 L 371 -53.9 Q 373.7 -56.6 373.7 -60.9 L 373.7 -60.9 L 373.7 -60.9 Q 373.7 -62.4 373.1 -63.2 L 373.1 -63.2 L 373.1 -63.2 Q 372.6 -64 371.5 -64 L 371.5 -64 L 371.5 -64 Q 370.4 -64 369.5 -63.6 L 369.5 -63.6 L 369.5 -63.6 Q 368.5 -63.1 367.6 -61.7 L 367.6 -61.7 L 367.6 -61.7 Q 365.2 -58.5 363.9 -51.1 Z M 405.1 -51.3 L 405.1 -51.3 L 405.1 -51.3 Q 407.4 -55.4 407.4 -59.6 L 407.4 -59.6 L 407.4 -59.6 Q 407.4 -62.3 405.4 -62.3 L 405.4 -62.3 L 405.4 -62.3 Q 403.9 -62.3 402.3 -59.7 L 402.3 -59.7 L 402.3 -59.7 Q 400.6 -57.1 400.1 -53.7 L 400.1 -53.7 L 396.8 -33.3 L 383.5 -32 L 390 -66 L 400.6 -67.2 L 399.4 -60.8 L 399.4 -60.8 Q 402.6 -67.2 409.6 -67.2 L 409.6 -67.2 L 409.6 -67.2 Q 413.3 -67.2 415.3 -65.3 L 415.3 -65.3 L 415.3 -65.3 Q 417.4 -63.4 417.4 -59.5 L 417.4 -59.5 L 417.4 -59.5 Q 417.4 -55.5 414.8 -53 L 414.8 -53 L 414.8 -53 Q 412.2 -50.5 407.8 -50.5 L 407.8 -50.5 L 407.8 -50.5 Q 405.8 -50.5 405.1 -51.3 Z M 438.7 -40.6 L 438.7 -40.6 L 438.7 -40.6 Q 435.4 -37.1 429.3 -37.1 L 429.3 -37.1 L 429.3 -37.1 Q 421.7 -37.1 420.1 -42.7 L 420.1 -42.7 L 420.1 -42.7 Q 419.6 -44.3 419.6 -46.2 L 419.6 -46.2 L 419.6 -46.2 Q 419.6 -48 420 -50 L 420 -50 L 423 -66 L 436 -67.2 L 432.5 -48.6 L 432.5 -48.6 Q 432.3 -47.8 432.1 -46.9 L 432.1 -46.9 L 432.1 -46.9 Q 432 -46 432 -45.1 L 432 -45.1 L 432 -45.1 Q 432 -44.1 432.3 -43.5 L 432.3 -43.5 L 432.3 -43.5 Q 432.6 -42.9 433 -42.5 L 433 -42.5 L 433 -42.5 Q 433.8 -42 435.2 -42 L 435.2 -42 L 435.2 -42 Q 436.6 -42 437.7 -43.7 L 437.7 -43.7 L 437.7 -43.7 Q 438.9 -45.4 439.5 -48.2 L 439.5 -48.2 L 443 -66 L 455.6 -67.2 L 450.8 -42.1 L 450.8 -42.1 Q 448.5 -29.8 443.6 -24.9 L 443.6 -24.9 L 443.6 -24.9 Q 441.1 -22.4 437.9 -21.5 L 437.9 -21.5 L 437.9 -21.5 Q 434.6 -20.5 430.5 -20.5 L 430.5 -20.5 L 430.5 -20.5 Q 423.8 -20.5 419.9 -22.6 L 419.9 -22.6 L 419.9 -22.6 Q 416.1 -24.7 416.1 -28.2 L 416.1 -28.2 L 416.1 -28.2 Q 416.1 -30.8 418.1 -32.3 L 418.1 -32.3 L 418.1 -32.3 Q 420.1 -33.8 423.1 -33.8 L 423.1 -33.8 L 423.1 -33.8 Q 425.8 -33.8 427.9 -32.7 L 427.9 -32.7 L 427.9 -32.7 Q 429.1 -32 429.7 -31.1 L 429.7 -31.1 L 429.7 -31.1 Q 428.2 -29.8 428.2 -27.7 L 428.2 -27.7 L 428.2 -27.7 Q 428.2 -24.9 430.7 -24.9 L 430.7 -24.9 L 430.7 -24.9 Q 435 -24.9 437.4 -34.6 L 437.4 -34.6 L 437.4 -34.6 Q 438.1 -37.5 438.7 -40.6 Z" fill="url(#editing-gradient-gradient)"></path></g></g><style>text {
  font-size: 64px;
  font-family: Arial Black;
  dominant-baseline: central;
  text-anchor: middle;
}</style></svg>